<svg width="13" height="12" viewBox="0 0 13 12" fill="none" xmlns="http://www.w3.org/2000/svg">
<g clip-path="url(#clip0_1214_7504)">
<path d="M6.5 0C3.18352 0 0.5 2.68376 0.5 6C0.5 9.31648 3.18376 12 6.5 12C9.81648 12 12.5 9.31624 12.5 6C12.5 2.68352 9.81622 0 6.5 0ZM6.5 11.0625C3.70173 11.0625 1.4375 8.79809 1.4375 6C1.4375 3.20173 3.70191 0.9375 6.5 0.9375C9.29827 0.9375 11.5625 3.20191 11.5625 6C11.5625 8.79827 9.29806 11.0625 6.5 11.0625Z" fill="#B11515"/>
<path d="M6.5 5.02344C6.24111 5.02344 6.03125 5.2333 6.03125 5.49219V8.51077C6.03125 8.76966 6.24111 8.97952 6.5 8.97952C6.75889 8.97952 6.96875 8.76964 6.96875 8.51075V5.49219C6.96875 5.2333 6.75889 5.02344 6.5 5.02344Z" fill="#B11515"/>
<path d="M6.5 4.44946C6.84949 4.44946 7.13281 4.16614 7.13281 3.81665C7.13281 3.46716 6.84949 3.18384 6.5 3.18384C6.15051 3.18384 5.86719 3.46716 5.86719 3.81665C5.86719 4.16614 6.15051 4.44946 6.5 4.44946Z" fill="#B11515"/>
</g>
<defs>
<clipPath id="clip0_1214_7504">
<rect width="12" height="12" fill="white" transform="translate(0.5)"/>
</clipPath>
</defs>
</svg>
