<svg width="24" height="24" viewBox="0 0 24 24" fill="none" xmlns="http://www.w3.org/2000/svg">
<g clip-path="url(#clip0_1436_100)">
<path d="M21.1404 4.21875V2.8125C20.688 2.8125 2.23683 2.8125 2.85914 2.8125V4.21875H5.67164V24H18.3279V4.21875H21.1404ZM15.5154 21.0938H8.48414V18.2812H9.89039V19.6875H14.1091V18.2812H15.5154V21.0938ZM11.9998 16.875C10.0613 16.875 8.48414 15.2978 8.48414 13.3594C8.48414 11.421 10.0613 9.84375 11.9998 9.84375C13.9382 9.84375 15.5154 11.421 15.5154 13.3594C15.5154 15.2978 13.9382 16.875 11.9998 16.875ZM15.5154 8.4375H14.1091V7.03125H9.89039V8.4375H8.48414V5.625H15.5154V8.4375Z" fill="white"/>
<path d="M12 15.4688C13.165 15.4688 14.1094 14.5244 14.1094 13.3594C14.1094 12.1944 13.165 11.25 12 11.25C10.835 11.25 9.89062 12.1944 9.89062 13.3594C9.89062 14.5244 10.835 15.4688 12 15.4688Z" fill="white"/>
<path d="M0 0V7.03125H4.26562V5.625H1.40625V1.40625C1.87031 1.40625 24.2382 1.40625 22.5938 1.40625V5.625H19.7344V7.03125H24V0H0Z" fill="white"/>
</g>
<defs>
<clipPath id="clip0_1436_100">
<rect width="24" height="24" fill="white"/>
</clipPath>
</defs>
</svg>
