<svg width="24" height="24" viewBox="0 0 24 24" fill="none" xmlns="http://www.w3.org/2000/svg">
<g clip-path="url(#clip0_1436_66)">
<path d="M21.7792 12C21.7792 11.642 21.7594 11.2886 21.7219 10.9406L24 8.99011C23.8543 8.41284 23.6659 7.83895 23.4316 7.27261C23.1968 6.7065 22.9242 6.16748 22.6191 5.65622L19.6332 5.88759C19.1869 5.331 18.6811 4.82437 18.1253 4.37719L18.357 1.38642C17.8458 1.08131 17.3068 0.808734 16.7407 0.573891C16.1743 0.339656 15.6004 0.151266 15.0232 0.00548438L13.0758 2.27995C12.7225 2.24128 12.3637 2.2208 12 2.2208C11.642 2.2208 11.2887 2.24058 10.9406 2.27808L8.99016 0C8.41289 0.145781 7.839 0.334172 7.27266 0.568406C6.70655 0.80325 6.16753 1.07583 5.65627 1.38094L5.88764 4.36683C5.33105 4.81312 4.82442 5.31891 4.37723 5.87475L1.38647 5.643C1.08136 6.15427 0.808781 6.69328 0.573891 7.25939C0.339656 7.82578 0.151266 8.39962 0.00548438 8.97689L2.27995 10.9243C2.24128 11.2776 2.2208 11.6363 2.2208 12C2.2208 12.358 2.24058 12.7114 2.27808 13.0594L0 15.0098C0.145781 15.5871 0.334172 16.161 0.568406 16.7273C0.80325 17.2935 1.07583 17.8325 1.38094 18.3437L4.36683 18.1124C4.81312 18.669 5.31891 19.1756 5.87475 19.6228L5.643 22.6135C6.15427 22.9186 6.69328 23.1912 7.25939 23.4261C7.82578 23.6603 8.39967 23.8487 8.97689 23.9945L10.9243 21.72C11.2776 21.7587 11.6363 21.7792 12 21.7792C12.358 21.7792 12.7114 21.7594 13.0594 21.7219L15.0099 24C15.5872 23.8543 16.161 23.6659 16.7274 23.4316C17.2935 23.1968 17.8325 22.9242 18.3438 22.6191L18.1124 19.6332C18.669 19.1869 19.1756 18.6811 19.6228 18.1253L22.6136 18.357C22.9187 17.8458 23.1913 17.3068 23.4262 16.7407C23.6604 16.1743 23.8488 15.6004 23.9946 15.0232L21.7201 13.0758C21.7587 12.7224 21.7792 12.3636 21.7792 12ZM12 19.0312C8.12297 19.0312 4.96875 15.877 4.96875 12C4.96875 8.12297 8.12297 4.96875 12 4.96875C15.877 4.96875 19.0312 8.12297 19.0312 12C19.0312 15.877 15.877 19.0312 12 19.0312Z" fill="white"/>
<path d="M12 6.375C8.89838 6.375 6.375 8.89838 6.375 12C6.375 15.1016 8.89838 17.625 12 17.625C15.1016 17.625 17.625 15.1016 17.625 12C17.625 8.89838 15.1016 6.375 12 6.375ZM12 16.2188C9.67378 16.2188 7.78125 14.3262 7.78125 12C7.78125 9.67378 9.67378 7.78125 12 7.78125C14.3262 7.78125 16.2188 9.67378 16.2188 12C16.2188 14.3262 14.3262 16.2188 12 16.2188Z" fill="white"/>
<path d="M12 14.8125C13.5533 14.8125 14.8125 13.5533 14.8125 12C14.8125 10.4467 13.5533 9.1875 12 9.1875C10.4467 9.1875 9.1875 10.4467 9.1875 12C9.1875 13.5533 10.4467 14.8125 12 14.8125Z" fill="white"/>
</g>
<defs>
<clipPath id="clip0_1436_66">
<rect width="24" height="24" fill="white"/>
</clipPath>
</defs>
</svg>
