<svg width="24" height="24" viewBox="0 0 24 24" fill="none" xmlns="http://www.w3.org/2000/svg">
<path d="M21.8398 12C21.8398 11.7712 21.8316 11.5399 21.8154 11.3087L24 9.43829L23.8933 9.01574C23.7471 8.4367 23.5577 7.86431 23.33 7.31375C23.102 6.76417 22.8312 6.22552 22.5252 5.71268L22.3018 5.33844L19.4392 5.56026C19.1339 5.20804 18.8035 4.87705 18.4517 4.57122L18.6739 1.70326L18.2997 1.47995C17.7868 1.17384 17.2481 0.903055 16.6979 0.674773C16.1481 0.447381 15.5757 0.257942 14.9967 0.111751L14.5741 0.00506044L12.7071 2.18574C12.2389 2.15219 11.7762 2.15181 11.3087 2.18457L9.43829 0L9.01574 0.106691C8.43674 0.252928 7.86435 0.44232 7.31375 0.67004C6.76413 0.898088 6.22547 1.16887 5.71273 1.47489L5.33849 1.6982L5.5603 4.56087C5.20804 4.86613 4.87705 5.19661 4.57127 5.5484L1.70331 5.32616L1.47995 5.7004C1.17384 6.21334 0.903055 6.75199 0.67482 7.30222C0.447428 7.85208 0.257989 8.42447 0.111798 9.00347L0.0051073 9.42601L2.18578 11.2931C2.16882 11.5297 2.16025 11.7664 2.16025 12.0001C2.16025 12.2288 2.1684 12.4602 2.18461 12.6914L0 14.5617L0.106691 14.9843C0.252882 15.5633 0.44232 16.1357 0.669993 16.6863C0.897995 17.2358 1.16878 17.7745 1.47484 18.2873L1.69815 18.6615L4.56082 18.4397C4.86604 18.7919 5.19651 19.1229 5.54831 19.4287L5.32607 22.2967L5.70031 22.52C6.21319 22.8261 6.75185 23.0969 7.30208 23.3252C7.85193 23.5526 8.42433 23.742 9.00333 23.8882L9.42587 23.9949L11.2929 21.8142C11.7612 21.8478 12.2239 21.8482 12.6913 21.8154L14.5617 24L14.9842 23.8933C15.5633 23.7471 16.1356 23.5577 16.6862 23.33C17.2358 23.102 17.7745 22.8312 18.2872 22.5252L18.6615 22.3018L18.4396 19.4392C18.7919 19.134 19.1229 18.8035 19.4287 18.4517L22.2966 18.6739L22.52 18.2997C22.8261 17.7868 23.0969 17.2481 23.3251 16.6979C23.5525 16.1481 23.742 15.5757 23.8882 14.9967L23.9948 14.5741L21.8142 12.7071C21.8312 12.4704 21.8398 12.2338 21.8398 12ZM22.4114 15.0688C22.3021 15.4398 22.1731 15.8054 22.0265 16.16C21.8793 16.5149 21.7119 16.8647 21.5268 17.2043L18.8069 16.9936L18.5745 17.2824C18.1892 17.7614 17.7507 18.1991 17.2713 18.5835L16.9815 18.8158L17.1919 21.532C16.8523 21.717 16.5027 21.8843 16.1483 22.0313C15.7932 22.1782 15.4274 22.3072 15.0565 22.4165L13.2828 20.345L12.9145 20.3846C12.6098 20.4175 12.3021 20.4341 12 20.4341C11.6936 20.4341 11.3812 20.4169 11.0714 20.383L10.7024 20.3426L8.93112 22.4114C8.56016 22.3021 8.19455 22.1731 7.83999 22.0265C7.4851 21.8793 7.13527 21.7119 6.79561 21.5268L7.00637 18.8069L6.71755 18.5745C6.23859 18.1892 5.80086 17.7507 5.41646 17.2713L5.18414 16.9815L2.46795 17.1919C2.28296 16.8523 2.11564 16.5027 1.96861 16.1483C1.82176 15.7932 1.69277 15.4274 1.5834 15.0565L3.655 13.2828L3.61531 12.9145C3.58247 12.6098 3.56583 12.3021 3.56583 12C3.56583 11.6937 3.58303 11.3812 3.61695 11.0714L3.65734 10.7024L1.5886 8.93122C1.69792 8.56026 1.82687 8.19464 1.97348 7.84008C2.1207 7.48519 2.28812 7.13537 2.47315 6.79566L5.19309 7.00642L5.42541 6.7176C5.8107 6.23868 6.24918 5.80096 6.72866 5.41646L7.01841 5.18414L6.80798 2.468C7.14755 2.28301 7.49724 2.11569 7.85161 1.96865C8.20668 1.82181 8.57244 1.69281 8.94345 1.58345L10.7171 3.65505L11.0854 3.61536C11.39 3.58251 11.6977 3.56588 11.9999 3.56588C12.3062 3.56588 12.6187 3.58308 12.9285 3.617L13.2975 3.65739L15.0687 1.5886C15.4397 1.69792 15.8053 1.82687 16.1599 1.97348C16.5148 2.1207 16.8646 2.28812 17.2042 2.47315L16.9935 5.19309L17.2823 5.42545C17.7612 5.8108 18.199 6.24927 18.5834 6.7287L18.8157 7.01846L21.5319 6.80803C21.7168 7.14764 21.8842 7.49733 22.0312 7.8517C22.1781 8.20677 22.307 8.57253 22.4164 8.94349L20.3448 10.7172L20.3845 11.0855C20.4173 11.3901 20.434 11.6978 20.434 12C20.434 12.3063 20.4168 12.6188 20.3829 12.9286L20.3425 13.2976L22.4114 15.0688Z" fill="#999999"/>
<path d="M12.0001 4.97168C8.12462 4.97168 4.97168 8.12462 4.97168 12.0001C4.97168 15.8755 8.12462 19.0285 12.0001 19.0285C15.8755 19.0285 19.0285 15.8755 19.0285 12.0001C19.0285 8.12462 15.8755 4.97168 12.0001 4.97168ZM12.0001 17.6228C8.89971 17.6228 6.37736 15.1004 6.37736 12.0001C6.37736 8.89971 8.89971 6.37736 12.0001 6.37736C15.1004 6.37736 17.6228 8.89971 17.6228 12.0001C17.6228 15.1004 15.1004 17.6228 12.0001 17.6228Z" fill="#999999"/>
<path d="M11.9998 7.7832C9.67448 7.7832 7.78271 9.67497 7.78271 12.0002C7.78271 14.3255 9.67448 16.2173 11.9998 16.2173C14.325 16.2173 16.2168 14.3255 16.2168 12.0002C16.2168 9.67497 14.325 7.7832 11.9998 7.7832ZM11.9998 14.8116C10.4496 14.8116 9.18839 13.5504 9.18839 12.0002C9.18839 10.4501 10.4496 9.18888 11.9998 9.18888C13.5499 9.18888 14.8111 10.4501 14.8111 12.0002C14.8111 13.5504 13.5499 14.8116 11.9998 14.8116Z" fill="#999999"/>
</svg>
