<svg width="24" height="24" viewBox="0 0 24 24" fill="none" xmlns="http://www.w3.org/2000/svg">
<g clip-path="url(#clip0_1382_191)">
<path d="M24 0H0V7.03125H5.67188V24H18.3281V7.03125H24V0ZM7.07812 22.5938V4.21875H16.9219V22.5938H7.07812ZM22.5938 5.625H18.3281V4.21875H21.1875V2.8125H2.8125V4.21875H5.67188V5.625H1.40625V1.40625H22.5938V5.625Z" fill="#999999"/>
<path d="M12 9.84375C10.0615 9.84375 8.48438 11.4209 8.48438 13.3594C8.48438 15.2979 10.0615 16.875 12 16.875C13.9385 16.875 15.5156 15.2979 15.5156 13.3594C15.5156 11.4209 13.9385 9.84375 12 9.84375ZM12 15.4688C10.8369 15.4688 9.89062 14.5225 9.89062 13.3594C9.89062 12.1963 10.8369 11.25 12 11.25C13.1631 11.25 14.1094 12.1963 14.1094 13.3594C14.1094 14.5225 13.1631 15.4688 12 15.4688Z" fill="#999999"/>
<path d="M14.1094 19.6875H9.89062V18.2812H8.48438V21.0938H15.5156V18.2812H14.1094V19.6875Z" fill="#999999"/>
<path d="M8.48438 8.4375H9.89062V7.03125H14.1094V8.4375H15.5156V5.625H8.48438V8.4375Z" fill="#999999"/>
</g>
<defs>
<clipPath id="clip0_1382_191">
<rect width="24" height="24" fill="white"/>
</clipPath>
</defs>
</svg>
