<svg width="24" height="24" viewBox="0 0 24 24" fill="none" xmlns="http://www.w3.org/2000/svg">
<g clip-path="url(#clip0_1436_79)">
<path d="M4.38977 0.00292969L0 4.39452H4.38977V0.00292969Z" fill="white"/>
<path d="M14.1957 15.2577L17.1764 12.7862V0.00292969H5.79597V5.80049H0V22.5949H15.8224C14.7833 21.2064 14.1957 19.4976 14.1957 17.6948V15.2577ZM8.58818 18.0912H2.98206V16.6852H8.58818V18.0912ZM14.1943 15.279H2.98206V13.8731H14.1943V15.279ZM14.1943 12.4669H2.98206V11.0609H14.1943V12.4669ZM14.1943 9.65477H2.98206V8.2488H14.1943V9.65477Z" fill="white"/>
<path d="M17.7059 14.1738L15.6016 15.9186V17.6951C15.6016 20.2091 16.9814 22.5024 19.2027 23.6799L19.8007 23.997L20.3988 23.6799C22.62 22.5024 23.9998 20.2091 23.9998 17.6951V15.9186L21.8955 14.1738H17.7059ZM19.3109 21.1522L17.2371 19.0784L18.2313 18.0842L19.311 19.1639L21.3702 17.1047L22.3643 18.0989L19.3109 21.1522Z" fill="white"/>
</g>
<defs>
<clipPath id="clip0_1436_79">
<rect width="24" height="24" fill="white"/>
</clipPath>
</defs>
</svg>
