<svg width="24" height="24" viewBox="0 0 24 24" fill="none" xmlns="http://www.w3.org/2000/svg">
<g clip-path="url(#clip0_1382_206)">
<path d="M2.9834 10.3586H14.1977V11.7649H2.9834V10.3586Z" fill="#999999"/>
<path d="M2.9834 7.5459H14.1977V8.95212H2.9834V7.5459Z" fill="#999999"/>
<path d="M2.9834 13.1711H14.1977V14.5774H2.9834V13.1711Z" fill="#999999"/>
<path d="M2.9834 15.9839H8.59053V17.3901H2.9834V15.9839Z" fill="#999999"/>
<path d="M18.6809 17.841L17.8279 16.9879L16.8335 17.9823L18.6809 19.8296L21.367 17.1435L20.3726 16.1492L18.6809 17.841Z" fill="#999999"/>
<path d="M21.762 12.3658H17.1805V0.00170898H4.80361L0.000976562 4.80603V22.5977H16.768C17.1377 22.9037 17.5418 23.175 17.9767 23.4056L19.1001 24.0011L20.2235 23.4056C22.5535 22.1703 24.0009 19.7648 24.0009 17.1276V14.5894L21.762 12.3658ZM4.39177 2.40275V4.3941H2.40108L4.39177 2.40275ZM1.4072 5.80033H5.798V1.40793H15.7742V13.0252L14.1993 14.5894V17.1276C14.1993 18.6112 14.6574 20.0216 15.4731 21.1915H1.4072V5.80033ZM22.5948 17.1276C22.5948 19.2429 21.4338 21.1724 19.5649 22.1632L19.1001 22.4095L18.6353 22.1632C16.7664 21.1724 15.6054 19.2429 15.6054 17.1276V15.1747L17.0178 13.772H21.1823L22.5947 15.1747V17.1276H22.5948Z" fill="#999999"/>
</g>
<defs>
<clipPath id="clip0_1382_206">
<rect width="24" height="24" fill="white"/>
</clipPath>
</defs>
</svg>
