<svg width="24" height="24" viewBox="0 0 24 24" fill="none" xmlns="http://www.w3.org/2000/svg">
<g clip-path="url(#clip0_1382_183)">
<path d="M7.73975 8.44385H19.0743V9.8501H7.73975V8.44385Z" fill="#999999"/>
<path d="M7.73975 11.2583H19.0743V12.6646H7.73975V11.2583Z" fill="#999999"/>
<path d="M7.73975 14.0732H19.0743V15.4795H7.73975V14.0732Z" fill="#999999"/>
<path d="M10.5542 5.62891H16.2594V7.03516H10.5542V5.62891Z" fill="#999999"/>
<path d="M19.0739 2.81421V-0.000488281H2.11084V21.1848H4.92554V23.9995H17.2548L21.8888 19.3655V2.81421H19.0739ZM3.51709 19.7786V1.40576H17.6677V2.81421H4.92554V19.7786H3.51709ZM6.33179 4.22046H20.4825V18.3712H16.2603V22.5933H6.33179V4.22046ZM19.4881 19.7775L17.6666 21.5988V19.7775H19.4881Z" fill="#999999"/>
</g>
<defs>
<clipPath id="clip0_1382_183">
<rect width="24" height="24" fill="white"/>
</clipPath>
</defs>
</svg>
