<svg width="24" height="24" viewBox="0 0 24 24" fill="none" xmlns="http://www.w3.org/2000/svg">
<g clip-path="url(#clip0_1449_2073)">
<path d="M23.9994 12L16.9238 6.31421V9.89062H15.5176V2.85938H8.48633V0L0.00195312 3.07031V20.9297L8.48633 24V21.1406H15.5176V14.1094H16.9238V17.6858L23.9994 12ZM7.08008 22.0111L1.4082 19.9453V4.05469L7.08008 1.98871V22.0111ZM14.1113 19.7344H8.48633V4.26562H14.1113V9.89062H11.2988V14.1094H14.1113V19.7344ZM12.7051 12.7031V11.2969H18.3301V9.24829L21.7545 12L18.3301 14.7517V12.7031H12.7051Z" fill="#999999"/>
<path d="M4.26758 10.5938H5.67383V13.4062H4.26758V10.5938Z" fill="#999999"/>
</g>
<defs>
<clipPath id="clip0_1449_2073">
<rect width="24" height="24" fill="white"/>
</clipPath>
</defs>
</svg>
